<?xml version="1.0" encoding="UTF-8"?>
<svg width="226px" height="64px" viewBox="0 0 226 64" version="1.1" xmlns="http://www.w3.org/2000/svg" xmlns:xlink="http://www.w3.org/1999/xlink">
    <title>logo_color</title>
    <defs>
        <path d="M4.14088312,0.671584416 C2.14275325,0.671584416 0.52185347,2.29153247 0.52185347,4.28966234 L0.52185347,4.28966234 L0.52185347,61.2031169 C0.503688312,62.8887273 2.56997403,63.7115844 3.71532468,62.4748052 L3.71532468,62.4748052 L14.1074286,51.2473766 L69.1615584,51.2473766 C71.1588571,51.2473766 72.7788052,49.6282597 72.7788052,47.6301299 L72.7788052,47.6301299 L72.7788052,4.28966234 C72.7788052,2.29153247 71.1588571,0.671584416 69.1615584,0.671584416 L69.1615584,0.671584416 L4.14088312,0.671584416 Z M4.76841558,6.33267532 C4.76841558,5.55137662 5.4025974,4.91719481 6.1838961,4.91719481 L6.1838961,4.91719481 L67.1177143,4.91719481 C67.899013,4.91719481 68.5331948,5.55137662 68.5331948,6.33267532 L68.5331948,6.33267532 L68.5331948,47.0017662 L12.2522597,47.0017662 L4.76841558,55.0873766 L4.76841558,6.33267532 Z" id="path-1"></path>
        <linearGradient x1="0.000989879621%" y1="50.0001015%" x2="99.9998116%" y2="50.0001015%" id="linearGradient-3">
            <stop stop-color="#D24045" offset="0%"></stop>
            <stop stop-color="#F1B41B" offset="100%"></stop>
        </linearGradient>
        <path d="M4.14088312,0.671584416 C2.14275325,0.671584416 0.52185347,2.29153247 0.52185347,4.28966234 L0.52185347,4.28966234 L0.52185347,61.2031169 C0.503688312,62.8887273 2.56997403,63.7115844 3.71532468,62.4748052 L3.71532468,62.4748052 L14.1074286,51.2473766 L69.1615584,51.2473766 C71.1588571,51.2473766 72.7788052,49.6282597 72.7788052,47.6301299 L72.7788052,47.6301299 L72.7788052,4.28966234 C72.7788052,2.29153247 71.1588571,0.671584416 69.1615584,0.671584416 L69.1615584,0.671584416 M4.76841558,6.33267532 C4.76841558,5.55137662 5.4025974,4.91719481 6.1838961,4.91719481 L6.1838961,4.91719481 L67.1177143,4.91719481 C67.899013,4.91719481 68.5331948,5.55137662 68.5331948,6.33267532 L68.5331948,6.33267532 L68.5331948,47.0017662 L12.2522597,47.0017662 L4.76841558,55.0873766" id="path-4"></path>
        <path d="M4.14088312,0.671584416 C2.14275325,0.671584416 0.52185347,2.29153247 0.52185347,4.28966234 L0.52185347,4.28966234 L0.52185347,61.2031169 C0.503688312,62.8887273 2.56997403,63.7115844 3.71532468,62.4748052 L3.71532468,62.4748052 L14.1074286,51.2473766 L69.1615584,51.2473766 C71.1588571,51.2473766 72.7788052,49.6282597 72.7788052,47.6301299 L72.7788052,47.6301299 L72.7788052,4.28966234 C72.7788052,2.29153247 71.1588571,0.671584416 69.1615584,0.671584416 L69.1615584,0.671584416 M4.76841558,6.33267532 C4.76841558,5.55137662 5.4025974,4.91719481 6.1838961,4.91719481 L6.1838961,4.91719481 L67.1177143,4.91719481 C67.899013,4.91719481 68.5331948,5.55137662 68.5331948,6.33267532 L68.5331948,6.33267532 L68.5331948,47.0017662 L12.2522597,47.0017662 L4.76841558,55.0873766" id="path-6"></path>
        <path d="M4.14088312,0.671584416 C2.14275325,0.671584416 0.52185347,2.29153247 0.52185347,4.28966234 L0.52185347,4.28966234 L0.52185347,61.2031169 C0.503688312,62.8887273 2.56997403,63.7115844 3.71532468,62.4748052 L3.71532468,62.4748052 L14.1074286,51.2473766 L69.1615584,51.2473766 C71.1588571,51.2473766 72.7788052,49.6282597 72.7788052,47.6301299 L72.7788052,47.6301299 L72.7788052,4.28966234 C72.7788052,2.29153247 71.1588571,0.671584416 69.1615584,0.671584416 L69.1615584,0.671584416 M4.76841558,6.33267532 C4.76841558,5.55137662 5.4025974,4.91719481 6.1838961,4.91719481 L6.1838961,4.91719481 L67.1177143,4.91719481 C67.899013,4.91719481 68.5331948,5.55137662 68.5331948,6.33267532 L68.5331948,6.33267532 L68.5331948,47.0017662 L12.2522597,47.0017662 L4.76841558,55.0873766" id="path-8"></path>
        <path d="M1.3174026,7.41485714 L7.26192208,7.41485714 C7.40322078,6.24706494 8.0398961,5.22057143 9.77454545,5.22057143 L9.77454545,5.22057143 C11.790961,5.22057143 12.2148571,6.38836364 12.2148571,8.15709091 L12.2148571,8.15709091 L12.2148571,8.58181818 L10.446961,8.58181818 C4.28966234,8.58181818 0.610077922,10.2798961 0.610077922,14.6327273 L0.610077922,14.6327273 C0.610077922,18.5608312 3.5465974,20.1882597 6.87293506,20.1882597 L6.87293506,20.1882597 C9.84519481,20.1882597 11.4726234,18.948987 12.356987,17.6041558 L12.356987,17.6041558 L12.356987,19.7635325 L18.5134545,19.7635325 L18.5134545,7.76727273 C18.5134545,2.85007792 15.2585974,0.762181818 10.1635325,0.762181818 L10.1635325,0.762181818 C5.10337662,0.762181818 1.6,2.95646753 1.3174026,7.41485714 M6.87293506,14.1730909 C6.87293506,12.6512208 8.00498701,12.1558442 10.5525195,12.1558442 L10.5525195,12.1558442 L12.2148571,12.1558442 L12.2148571,13.2878961 C12.2148571,14.8795844 10.8716883,15.9060779 9.06638961,15.9060779 L9.06638961,15.9060779 C7.58109091,15.9060779 6.87293506,15.2336623 6.87293506,14.1730909" id="path-10"></path>
        <linearGradient x1="3.64860214%" y1="49.9991049%" x2="252.326875%" y2="49.9991049%" id="linearGradient-12">
            <stop stop-color="#D24045" offset="0%"></stop>
            <stop stop-color="#F1B41B" offset="100%"></stop>
        </linearGradient>
        <path d="M0.817038961,6.848 C0.817038961,10.7054545 2.90493506,12.1558442 7.86036364,12.7925195 L7.86036364,12.7925195 C10.4062338,13.1465974 11.2914286,13.5704935 11.2914286,14.4556883 L11.2914286,14.4556883 C11.2914286,15.3757922 10.5841039,15.9775584 9.02649351,15.9775584 L9.02649351,15.9775584 C7.22285714,15.9775584 6.62025974,15.2336623 6.40831169,13.8896623 L6.40831169,13.8896623 L0.570181818,13.8896623 C0.710649351,17.993974 3.79012987,20.1882597 9.0614026,20.1882597 L9.0614026,20.1882597 C14.193039,20.1882597 17.4487273,18.2067532 17.4487273,13.819013 L17.4487273,13.819013 C17.4487273,9.85516883 14.971013,8.51116883 9.84103896,7.87449351 L9.84103896,7.87449351 C7.5761039,7.59106494 6.72664935,7.23698701 6.72664935,6.35262338 L6.72664935,6.35262338 C6.72664935,5.50316883 7.43480519,4.9014026 8.81454545,4.9014026 L8.81454545,4.9014026 C10.2649351,4.9014026 10.9373506,5.50316883 11.1858701,6.74161039 L11.1858701,6.74161039 L16.9176104,6.74161039 C16.4928831,2.31896104 13.3086753,0.762181818 8.74472727,0.762181818 L8.74472727,0.762181818 C4.46254545,0.762181818 0.817038961,2.74368831 0.817038961,6.848" id="path-13"></path>
        <linearGradient x1="-109.154927%" y1="49.9991049%" x2="154.622588%" y2="49.9991049%" id="linearGradient-15">
            <stop stop-color="#D24045" offset="0%"></stop>
            <stop stop-color="#F1B41B" offset="100%"></stop>
        </linearGradient>
        <polygon id="path-16" points="0.556051948 0.599272727 0.556051948 27.2440519 6.88955844 27.2440519 6.88955844 19.140987 11.8790649 27.2440519 18.9556364 27.2440519 12.4093506 17.0530909 18.4610909 8.73890909 11.8790649 8.73890909 6.88955844 16.0623377 6.88955844 0.599272727"></polygon>
        <linearGradient x1="-199.435746%" y1="50.0000602%" x2="42.5360659%" y2="50.0000602%" id="linearGradient-18">
            <stop stop-color="#D24045" offset="0%"></stop>
            <stop stop-color="#F1B41B" offset="100%"></stop>
        </linearGradient>
    </defs>
    <g id="logo_color" stroke="none" stroke-width="1" fill="none" fill-rule="evenodd">
        <g id="Group-2" transform="translate(1.000000, 0.163740)">
            <g id="Group">
                <g id="Group-3" transform="translate(0.000000, 0.000000)">
                    <mask id="mask-2" fill="white">
                        <use xlink:href="#path-1"></use>
                    </mask>
                    <g id="Clip-2"></g>
                    <path d="M4.14088312,0.671584416 C2.14275325,0.671584416 0.52185347,2.29153247 0.52185347,4.28966234 L0.52185347,4.28966234 L0.52185347,61.2031169 C0.503688312,62.8887273 2.56997403,63.7115844 3.71532468,62.4748052 L3.71532468,62.4748052 L14.1074286,51.2473766 L69.1615584,51.2473766 C71.1588571,51.2473766 72.7788052,49.6282597 72.7788052,47.6301299 L72.7788052,47.6301299 L72.7788052,4.28966234 C72.7788052,2.29153247 71.1588571,0.671584416 69.1615584,0.671584416 L69.1615584,0.671584416 L4.14088312,0.671584416 Z M4.76841558,6.33267532 C4.76841558,5.55137662 5.4025974,4.91719481 6.1838961,4.91719481 L6.1838961,4.91719481 L67.1177143,4.91719481 C67.899013,4.91719481 68.5331948,5.55137662 68.5331948,6.33267532 L68.5331948,6.33267532 L68.5331948,47.0017662 L12.2522597,47.0017662 L4.76841558,55.0873766 L4.76841558,6.33267532 Z" id="Fill-1" fill="url(#linearGradient-3)" mask="url(#mask-2)"></path>
                </g>
                <g id="Group-13">
                    <g id="Group-6">
                        <mask id="mask-5" fill="white">
                            <use xlink:href="#path-4"></use>
                        </mask>
                        <g id="Clip-5"></g>
                        <path d="M85.9767688,32.6871273 C85.9767688,58.2646857 65.2416,78.9998545 39.6640416,78.9998545 C14.0856519,78.9998545 -6.64951688,58.2646857 -6.64951688,32.6871273 C-6.64951688,7.10956883 14.0856519,-13.6256 39.6640416,-13.6256 C65.2416,-13.6256 85.9767688,7.10956883 85.9767688,32.6871273" id="Fill-4" fill="#C15608" mask="url(#mask-5)"></path>
                    </g>
                    <g id="Group-9">
                        <mask id="mask-7" fill="white">
                            <use xlink:href="#path-6"></use>
                        </mask>
                        <g id="Clip-8"></g>
                        <path d="M102.959294,19.3360623 C119.600956,44.6493091 112.571761,78.6615688 87.2585143,95.3032312 C61.9452675,111.945725 27.9330078,104.91653 11.2905143,79.6032831 C-5.35197922,54.2900364 1.67804675,20.2777766 26.9912935,3.63528312 C52.3045403,-13.0072104 86.3168,-5.97801558 102.959294,19.3360623" id="Fill-7" fill="#E87721" mask="url(#mask-7)"></path>
                    </g>
                    <g id="Group-12">
                        <mask id="mask-9" fill="white">
                            <use xlink:href="#path-8"></use>
                        </mask>
                        <g id="Clip-11"></g>
                        <path d="M119.919875,27.2155429 C136.561538,52.5287896 129.532343,86.5410494 104.219096,103.182712 C78.9058494,119.825205 44.8935896,112.79601 28.2510961,87.4827636 C11.6086026,62.1695169 18.6386286,28.1572571 43.9518753,11.5147636 C69.2651221,-5.12772987 103.277382,1.90146494 119.919875,27.2155429" id="Fill-10" fill="#F2B311" mask="url(#mask-9)"></path>
                    </g>
                </g>
                <g id="Group-16" transform="translate(7.480519, 17.454545)">
                    <mask id="mask-11" fill="white">
                        <use xlink:href="#path-10"></use>
                    </mask>
                    <g id="Clip-15"></g>
                    <path d="M1.3174026,7.41485714 L7.26192208,7.41485714 C7.40322078,6.24706494 8.0398961,5.22057143 9.77454545,5.22057143 L9.77454545,5.22057143 C11.790961,5.22057143 12.2148571,6.38836364 12.2148571,8.15709091 L12.2148571,8.15709091 L12.2148571,8.58181818 L10.446961,8.58181818 C4.28966234,8.58181818 0.610077922,10.2798961 0.610077922,14.6327273 L0.610077922,14.6327273 C0.610077922,18.5608312 3.5465974,20.1882597 6.87293506,20.1882597 L6.87293506,20.1882597 C9.84519481,20.1882597 11.4726234,18.948987 12.356987,17.6041558 L12.356987,17.6041558 L12.356987,19.7635325 L18.5134545,19.7635325 L18.5134545,7.76727273 C18.5134545,2.85007792 15.2585974,0.762181818 10.1635325,0.762181818 L10.1635325,0.762181818 C5.10337662,0.762181818 1.6,2.95646753 1.3174026,7.41485714 M6.87293506,14.1730909 C6.87293506,12.6512208 8.00498701,12.1558442 10.5525195,12.1558442 L10.5525195,12.1558442 L12.2148571,12.1558442 L12.2148571,13.2878961 C12.2148571,14.8795844 10.8716883,15.9060779 9.06638961,15.9060779 L9.06638961,15.9060779 C7.58109091,15.9060779 6.87293506,15.2336623 6.87293506,14.1730909" id="Fill-14" fill="url(#linearGradient-12)" mask="url(#mask-11)"></path>
                </g>
                <g id="Group-19" transform="translate(26.597403, 17.454545)">
                    <mask id="mask-14" fill="white">
                        <use xlink:href="#path-13"></use>
                    </mask>
                    <g id="Clip-18"></g>
                    <path d="M0.817038961,6.848 C0.817038961,10.7054545 2.90493506,12.1558442 7.86036364,12.7925195 L7.86036364,12.7925195 C10.4062338,13.1465974 11.2914286,13.5704935 11.2914286,14.4556883 L11.2914286,14.4556883 C11.2914286,15.3757922 10.5841039,15.9775584 9.02649351,15.9775584 L9.02649351,15.9775584 C7.22285714,15.9775584 6.62025974,15.2336623 6.40831169,13.8896623 L6.40831169,13.8896623 L0.570181818,13.8896623 C0.710649351,17.993974 3.79012987,20.1882597 9.0614026,20.1882597 L9.0614026,20.1882597 C14.193039,20.1882597 17.4487273,18.2067532 17.4487273,13.819013 L17.4487273,13.819013 C17.4487273,9.85516883 14.971013,8.51116883 9.84103896,7.87449351 L9.84103896,7.87449351 C7.5761039,7.59106494 6.72664935,7.23698701 6.72664935,6.35262338 L6.72664935,6.35262338 C6.72664935,5.50316883 7.43480519,4.9014026 8.81454545,4.9014026 L8.81454545,4.9014026 C10.2649351,4.9014026 10.9373506,5.50316883 11.1858701,6.74161039 L11.1858701,6.74161039 L16.9176104,6.74161039 C16.4928831,2.31896104 13.3086753,0.762181818 8.74472727,0.762181818 L8.74472727,0.762181818 C4.46254545,0.762181818 0.817038961,2.74368831 0.817038961,6.848" id="Fill-17" fill="url(#linearGradient-15)" mask="url(#mask-14)"></path>
                </g>
                <g id="Group-22" transform="translate(44.883117, 9.974026)">
                    <mask id="mask-17" fill="white">
                        <use xlink:href="#path-16"></use>
                    </mask>
                    <g id="Clip-21"></g>
                    <polygon id="Fill-20" fill="url(#linearGradient-18)" mask="url(#mask-17)" points="0.556051948 0.599272727 0.556051948 27.2440519 6.88955844 27.2440519 6.88955844 19.140987 11.8790649 27.2440519 18.9556364 27.2440519 12.4093506 17.0530909 18.4610909 8.73890909 11.8790649 8.73890909 6.88955844 16.0623377 6.88955844 0.599272727"></polygon>
                </g>
            </g>
            <g id="Group-33" transform="translate(78.623377, 9.974026)" fill="#55565A">
                <path d="M15.5331325,29.5377455 C6.80918442,29.5377455 0.724197403,22.9241351 0.724197403,14.8908883 C0.724197403,6.85681039 6.89063896,0.162576623 15.6137558,0.162576623 C24.3377039,0.162576623 30.4243532,6.77701818 30.4243532,14.8094338 C30.4243532,22.8435117 24.2570805,29.5377455 15.5331325,29.5377455 M15.5331325,4.7473039 C9.89282078,4.7473039 5.95723636,9.25140779 5.95723636,14.8094338 C5.95723636,20.3691221 9.97427532,24.9530182 15.6137558,24.9530182 C21.2540675,24.9530182 25.1896519,20.4497455 25.1896519,14.8908883 C25.1896519,9.33286234 21.1734442,4.7473039 15.5331325,4.7473039" id="Fill-23"></path>
                <path d="M45.6804571,19.9220364 L40.0401455,19.9220364 L40.0401455,29.0515948 L35.0498078,29.0515948 L35.0498078,0.648893506 L46.2489766,0.648893506 C52.8617558,0.648893506 57.0417039,4.38167273 57.0417039,10.1848935 C57.0417039,16.5948675 51.9291844,19.9220364 45.6804571,19.9220364 M45.8433662,5.19372468 L40.0401455,5.19372468 L40.0401455,15.4179325 L45.8433662,15.4179325 C49.6168727,15.4179325 51.9699117,13.3483221 51.9699117,10.305413 C51.9699117,6.93834805 49.5761455,5.19372468 45.8433662,5.19372468" id="Fill-25"></path>
                <polygon id="Fill-27" points="73.3533091 29.0515117 68.3222442 29.0515117 68.3222442 5.2750961 59.3140364 5.2750961 59.3140364 0.64881039 82.3598545 0.64881039 82.3598545 5.2750961 73.3533091 5.2750961"></polygon>
                <path d="M111.088291,16.7572779 C111.088291,25.2376935 106.300758,29.4974338 98.8759273,29.4974338 C91.4909922,29.4974338 86.7849143,25.2376935 86.7849143,17.0008104 L86.7849143,0.649225974 L91.7752519,0.649225974 L91.7752519,16.7980052 C91.7752519,22.0726026 94.4940052,24.9135377 98.9573818,24.9135377 C103.380031,24.9135377 106.098784,22.2355117 106.098784,17.0008104 L106.098784,0.649225974 L111.088291,0.649225974 L111.088291,16.7572779 Z" id="Fill-29"></path>
                <polygon id="Fill-31" points="130.4832 22.0726857 130.320291 22.0726857 121.435096 8.76401039 121.435096 29.0511792 116.526213 29.0511792 116.526213 0.649309091 121.841538 0.649309091 130.4832 14.0793351 139.124862 0.649309091 144.440187 0.649309091 144.440187 29.0511792 139.450681 29.0511792 139.450681 8.68255584"></polygon>
            </g>
        </g>
    </g>
</svg>